# This file uses meters as units for non-parametric coordinates.

mtllib floatingUICanvase.mtl
g default
v 35.062635 9.132294 -97.344092
v 35.062635 9.132294 -81.308943
v 35.062635 9.132294 -65.273810
v 35.062635 9.132294 -49.238661
v 35.062635 9.132294 -33.203526
v 35.062635 17.580643 -97.344092
v 35.062635 17.580643 -81.308943
v 35.062635 17.580643 -65.273810
v 35.062635 17.580643 -49.238661
v 35.062635 17.580643 -33.203526
v 35.062635 26.028991 -97.344092
v 35.062635 26.028991 -81.308943
v 35.062635 26.028991 -65.273810
v 35.062635 26.028991 -49.238661
v 35.062635 26.028991 -33.203526
v 35.062635 34.477341 -97.344092
v 35.062635 34.477341 -81.308943
v 35.062635 34.477341 -65.273810
v 35.062635 34.477341 -49.238661
v 35.062635 34.477341 -33.203526
v 35.062635 42.925690 -97.344092
v 35.062635 42.925690 -81.308943
v 35.062635 42.925690 -65.273810
v 35.062635 42.925690 -49.238661
v 35.062635 42.925690 -33.203526
v 35.062635 51.374039 -97.344092
v 35.062635 51.374039 -81.308943
v 35.062635 51.374039 -65.273810
v 35.062635 51.374039 -49.238661
v 35.062635 51.374039 -33.203526
v 35.062635 59.822388 -97.344092
v 35.062635 59.822388 -81.308943
v 35.062635 59.822388 -65.273810
v 35.062635 59.822388 -49.238661
v 35.062635 59.822388 -33.203526
v 35.062635 68.270737 -97.344092
v 35.062635 68.270737 -81.308943
v 35.062635 68.270737 -65.273810
v 35.062635 68.270737 -49.238661
v 35.062635 68.270737 -33.203526
v 35.062635 76.719086 -97.344092
v 35.062635 76.719086 -81.308943
v 35.062635 76.719086 -65.273810
v 35.062635 76.719086 -49.238661
v 35.062635 76.719086 -33.203526
v 35.062635 85.167435 -97.344092
v 35.062635 85.167435 -81.308943
v 35.062635 85.167435 -65.273810
v 35.062635 85.167435 -49.238661
v 35.062635 85.167435 -33.203526
v 35.062635 93.615784 -97.344092
v 35.062635 93.615784 -81.308943
v 35.062635 93.615784 -65.273810
v 35.062635 93.615784 -49.238661
v 35.062635 93.615784 -33.203526
vt 0.003610 0.400922
vt 0.101158 0.401234
vt 0.100934 0.453534
vt 0.003386 0.453221
vt 0.198706 0.401547
vt 0.198482 0.453846
vt 0.296254 0.401859
vt 0.296030 0.454159
vt 0.393802 0.402172
vt 0.393578 0.454471
vt 0.100710 0.505833
vt 0.003162 0.505520
vt 0.198258 0.506146
vt 0.295806 0.506458
vt 0.393354 0.506771
vt 0.100486 0.558132
vt 0.002938 0.557820
vt 0.198034 0.558445
vt 0.295582 0.558758
vt 0.393130 0.559070
vt 0.100262 0.610432
vt 0.002714 0.610119
vt 0.197810 0.610744
vt 0.295358 0.611057
vt 0.392906 0.611370
vt 0.100038 0.662731
vt 0.002490 0.662419
vt 0.197586 0.663044
vt 0.295134 0.663357
vt 0.392682 0.663669
vt 0.099814 0.715031
vt 0.002266 0.714718
vt 0.197362 0.715343
vt 0.294910 0.715656
vt 0.392458 0.715968
vt 0.099590 0.767330
vt 0.002042 0.767018
vt 0.197138 0.767643
vt 0.294686 0.767955
vt 0.392234 0.768268
vt 0.099366 0.819630
vt 0.001819 0.819317
vt 0.196914 0.819942
vt 0.294462 0.820255
vt 0.392010 0.820567
vt 0.099142 0.871929
vt 0.001595 0.871616
vt 0.196690 0.872242
vt 0.294238 0.872554
vt 0.391786 0.872867
vt 0.098919 0.924228
vt 0.001371 0.923916
vt 0.196466 0.924541
vt 0.294014 0.924854
vt 0.391562 0.925166
vn -1.000000 0.000000 0.000000
vn -1.000000 0.000000 0.000000
vn -1.000000 0.000000 0.000000
vn -1.000000 0.000000 0.000000
vn -1.000000 0.000000 0.000000
vn -1.000000 0.000000 0.000000
vn -1.000000 0.000000 0.000000
vn -1.000000 0.000000 0.000000
vn -1.000000 0.000000 0.000000
vn -1.000000 0.000000 0.000000
vn -1.000000 0.000000 0.000000
vn -1.000000 0.000000 0.000000
vn -1.000000 0.000000 0.000000
vn -1.000000 0.000000 0.000000
vn -1.000000 0.000000 0.000000
vn -1.000000 0.000000 0.000000
vn -1.000000 0.000000 0.000000
vn -1.000000 0.000000 0.000000
vn -1.000000 0.000000 0.000000
vn -1.000000 0.000000 0.000000
vn -1.000000 0.000000 0.000000
vn -1.000000 0.000000 0.000000
vn -1.000000 0.000000 0.000000
vn -1.000000 0.000000 0.000000
vn -1.000000 0.000000 0.000000
vn -1.000000 0.000000 0.000000
vn -1.000000 0.000000 0.000000
vn -1.000000 0.000000 0.000000
vn -1.000000 0.000000 0.000000
vn -1.000000 0.000000 0.000000
vn -1.000000 0.000000 0.000000
vn -1.000000 0.000000 0.000000
vn -1.000000 0.000000 0.000000
vn -1.000000 0.000000 0.000000
vn -1.000000 0.000000 0.000000
vn -1.000000 0.000000 0.000000
vn -1.000000 0.000000 0.000000
vn -1.000000 0.000000 0.000000
vn -1.000000 0.000000 0.000000
vn -1.000000 0.000000 0.000000
vn -1.000000 0.000000 0.000000
vn -1.000000 0.000000 0.000000
vn -1.000000 0.000000 0.000000
vn -1.000000 0.000000 0.000000
vn -1.000000 0.000000 0.000000
vn -1.000000 0.000000 0.000000
vn -1.000000 0.000000 0.000000
vn -1.000000 0.000000 0.000000
vn -1.000000 0.000000 0.000000
vn -1.000000 0.000000 0.000000
vn -1.000000 0.000000 0.000000
vn -1.000000 0.000000 0.000000
vn -1.000000 0.000000 0.000000
vn -1.000000 0.000000 0.000000
vn -1.000000 0.000000 0.000000
s 1
g polySurface1 Flat_Split UI_Concepts
usemtl lambert10SG
f 1/1/1 2/2/2 7/3/3 6/4/4
f 2/2/2 3/5/5 8/6/6 7/3/3
f 3/5/5 4/7/7 9/8/8 8/6/6
f 4/7/7 5/9/9 10/10/10 9/8/8
f 6/4/4 7/3/3 12/11/11 11/12/12
f 7/3/3 8/6/6 13/13/13 12/11/11
f 8/6/6 9/8/8 14/14/14 13/13/13
f 9/8/8 10/10/10 15/15/15 14/14/14
f 11/12/12 12/11/11 17/16/16 16/17/17
f 12/11/11 13/13/13 18/18/18 17/16/16
f 13/13/13 14/14/14 19/19/19 18/18/18
f 14/14/14 15/15/15 20/20/20 19/19/19
f 16/17/17 17/16/16 22/21/21 21/22/22
f 17/16/16 18/18/18 23/23/23 22/21/21
f 18/18/18 19/19/19 24/24/24 23/23/23
f 19/19/19 20/20/20 25/25/25 24/24/24
f 21/22/22 22/21/21 27/26/26 26/27/27
f 22/21/21 23/23/23 28/28/28 27/26/26
f 23/23/23 24/24/24 29/29/29 28/28/28
f 24/24/24 25/25/25 30/30/30 29/29/29
f 26/27/27 27/26/26 32/31/31 31/32/32
f 27/26/26 28/28/28 33/33/33 32/31/31
f 28/28/28 29/29/29 34/34/34 33/33/33
f 29/29/29 30/30/30 35/35/35 34/34/34
f 31/32/32 32/31/31 37/36/36 36/37/37
f 32/31/31 33/33/33 38/38/38 37/36/36
f 33/33/33 34/34/34 39/39/39 38/38/38
f 34/34/34 35/35/35 40/40/40 39/39/39
f 36/37/37 37/36/36 42/41/41 41/42/42
f 37/36/36 38/38/38 43/43/43 42/41/41
f 38/38/38 39/39/39 44/44/44 43/43/43
f 39/39/39 40/40/40 45/45/45 44/44/44
f 41/42/42 42/41/41 47/46/46 46/47/47
f 42/41/41 43/43/43 48/48/48 47/46/46
f 43/43/43 44/44/44 49/49/49 48/48/48
f 44/44/44 45/45/45 50/50/50 49/49/49
f 46/47/47 47/46/46 52/51/51 51/52/52
f 47/46/46 48/48/48 53/53/53 52/51/51
f 48/48/48 49/49/49 54/54/54 53/53/53
f 49/49/49 50/50/50 55/55/55 54/54/54
g default
v 35.062635 9.132294 28.530885
v 35.062635 9.132294 44.566024
v 35.062635 9.132294 60.601169
v 35.062635 9.132294 76.636310
v 35.062635 9.132294 92.671451
v 35.062635 17.580643 28.530885
v 35.062635 17.580643 44.566024
v 35.062635 17.580643 60.601169
v 35.062635 17.580643 76.636310
v 35.062635 17.580643 92.671451
v 35.062635 26.028991 28.530885
v 35.062635 26.028991 44.566024
v 35.062635 26.028991 60.601169
v 35.062635 26.028991 76.636310
v 35.062635 26.028991 92.671451
v 35.062635 34.477341 28.530885
v 35.062635 34.477341 44.566024
v 35.062635 34.477341 60.601169
v 35.062635 34.477341 76.636310
v 35.062635 34.477341 92.671451
v 35.062635 42.925690 28.530885
v 35.062635 42.925690 44.566024
v 35.062635 42.925690 60.601169
v 35.062635 42.925690 76.636310
v 35.062635 42.925690 92.671451
v 35.062635 51.374039 28.530885
v 35.062635 51.374039 44.566024
v 35.062635 51.374039 60.601169
v 35.062635 51.374039 76.636310
v 35.062635 51.374039 92.671451
v 35.062635 59.822388 28.530885
v 35.062635 59.822388 44.566024
v 35.062635 59.822388 60.601169
v 35.062635 59.822388 76.636310
v 35.062635 59.822388 92.671451
v 35.062635 68.270737 28.530885
v 35.062635 68.270737 44.566024
v 35.062635 68.270737 60.601169
v 35.062635 68.270737 76.636310
v 35.062635 68.270737 92.671451
v 35.062635 76.719086 28.530885
v 35.062635 76.719086 44.566024
v 35.062635 76.719086 60.601169
v 35.062635 76.719086 76.636310
v 35.062635 76.719086 92.671451
v 35.062635 85.167435 28.530885
v 35.062635 85.167435 44.566024
v 35.062635 85.167435 60.601169
v 35.062635 85.167435 76.636310
v 35.062635 85.167435 92.671451
v 35.062635 93.615784 28.530885
v 35.062635 93.615784 44.566024
v 35.062635 93.615784 60.601169
v 35.062635 93.615784 76.636310
v 35.062635 93.615784 92.671451
vt 0.652180 0.385598
vt 0.736568 0.385650
vt 0.736536 0.437950
vt 0.652147 0.437897
vt 0.820957 0.385703
vt 0.820924 0.438002
vt 0.905345 0.385755
vt 0.905313 0.438055
vt 0.989734 0.385808
vt 0.989701 0.438107
vt 0.736503 0.490250
vt 0.652115 0.490197
vt 0.820892 0.490302
vt 0.905280 0.490355
vt 0.989669 0.490407
vt 0.736471 0.542549
vt 0.652082 0.542497
vt 0.820859 0.542602
vt 0.905248 0.542654
vt 0.989636 0.542707
vt 0.736438 0.594849
vt 0.652049 0.594797
vt 0.820827 0.594902
vt 0.905215 0.594954
vt 0.989604 0.595007
vt 0.736405 0.647149
vt 0.652017 0.647096
vt 0.820794 0.647201
vt 0.905182 0.647254
vt 0.989571 0.647307
vt 0.736373 0.699449
vt 0.651984 0.699396
vt 0.820761 0.699501
vt 0.905150 0.699554
vt 0.989539 0.699606
vt 0.736340 0.751748
vt 0.651952 0.751696
vt 0.820729 0.751801
vt 0.905117 0.751854
vt 0.989506 0.751906
vt 0.736308 0.804048
vt 0.651919 0.803996
vt 0.820696 0.804101
vt 0.905085 0.804153
vt 0.989473 0.804206
vt 0.736275 0.856348
vt 0.651887 0.856295
vt 0.820664 0.856400
vt 0.905052 0.856453
vt 0.989441 0.856506
vt 0.736243 0.908648
vt 0.651854 0.908595
vt 0.820631 0.908700
vt 0.905020 0.908753
vt 0.989408 0.908805
vn -1.000000 0.000000 0.000000
vn -1.000000 0.000000 0.000000
vn -1.000000 0.000000 0.000000
vn -1.000000 0.000000 0.000000
vn -1.000000 0.000000 0.000000
vn -1.000000 0.000000 0.000000
vn -1.000000 0.000000 0.000000
vn -1.000000 0.000000 0.000000
vn -1.000000 0.000000 0.000000
vn -1.000000 0.000000 0.000000
vn -1.000000 0.000000 0.000000
vn -1.000000 0.000000 0.000000
vn -1.000000 0.000000 0.000000
vn -1.000000 0.000000 0.000000
vn -1.000000 0.000000 0.000000
vn -1.000000 0.000000 0.000000
vn -1.000000 0.000000 0.000000
vn -1.000000 0.000000 0.000000
vn -1.000000 0.000000 0.000000
vn -1.000000 0.000000 0.000000
vn -1.000000 0.000000 0.000000
vn -1.000000 0.000000 0.000000
vn -1.000000 0.000000 0.000000
vn -1.000000 0.000000 0.000000
vn -1.000000 0.000000 0.000000
vn -1.000000 0.000000 0.000000
vn -1.000000 0.000000 0.000000
vn -1.000000 0.000000 0.000000
vn -1.000000 0.000000 0.000000
vn -1.000000 0.000000 0.000000
vn -1.000000 0.000000 0.000000
vn -1.000000 0.000000 0.000000
vn -1.000000 0.000000 0.000000
vn -1.000000 0.000000 0.000000
vn -1.000000 0.000000 0.000000
vn -1.000000 0.000000 0.000000
vn -1.000000 0.000000 0.000000
vn -1.000000 0.000000 0.000000
vn -1.000000 0.000000 0.000000
vn -1.000000 0.000000 0.000000
vn -1.000000 0.000000 0.000000
vn -1.000000 0.000000 0.000000
vn -1.000000 0.000000 0.000000
vn -1.000000 0.000000 0.000000
vn -1.000000 0.000000 0.000000
vn -1.000000 0.000000 0.000000
vn -1.000000 0.000000 0.000000
vn -1.000000 0.000000 0.000000
vn -1.000000 0.000000 0.000000
vn -1.000000 0.000000 0.000000
vn -1.000000 0.000000 0.000000
vn -1.000000 0.000000 0.000000
vn -1.000000 0.000000 0.000000
vn -1.000000 0.000000 0.000000
vn -1.000000 0.000000 0.000000
s 1
g Flat_Split UI_Concepts polySurface2
usemtl lambert10SG
f 56/56/56 57/57/57 62/58/58 61/59/59
f 57/57/57 58/60/60 63/61/61 62/58/58
f 58/60/60 59/62/62 64/63/63 63/61/61
f 59/62/62 60/64/64 65/65/65 64/63/63
f 61/59/59 62/58/58 67/66/66 66/67/67
f 62/58/58 63/61/61 68/68/68 67/66/66
f 63/61/61 64/63/63 69/69/69 68/68/68
f 64/63/63 65/65/65 70/70/70 69/69/69
f 66/67/67 67/66/66 72/71/71 71/72/72
f 67/66/66 68/68/68 73/73/73 72/71/71
f 68/68/68 69/69/69 74/74/74 73/73/73
f 69/69/69 70/70/70 75/75/75 74/74/74
f 71/72/72 72/71/71 77/76/76 76/77/77
f 72/71/71 73/73/73 78/78/78 77/76/76
f 73/73/73 74/74/74 79/79/79 78/78/78
f 74/74/74 75/75/75 80/80/80 79/79/79
f 76/77/77 77/76/76 82/81/81 81/82/82
f 77/76/76 78/78/78 83/83/83 82/81/81
f 78/78/78 79/79/79 84/84/84 83/83/83
f 79/79/79 80/80/80 85/85/85 84/84/84
f 81/82/82 82/81/81 87/86/86 86/87/87
f 82/81/81 83/83/83 88/88/88 87/86/86
f 83/83/83 84/84/84 89/89/89 88/88/88
f 84/84/84 85/85/85 90/90/90 89/89/89
f 86/87/87 87/86/86 92/91/91 91/92/92
f 87/86/86 88/88/88 93/93/93 92/91/91
f 88/88/88 89/89/89 94/94/94 93/93/93
f 89/89/89 90/90/90 95/95/95 94/94/94
f 91/92/92 92/91/91 97/96/96 96/97/97
f 92/91/91 93/93/93 98/98/98 97/96/96
f 93/93/93 94/94/94 99/99/99 98/98/98
f 94/94/94 95/95/95 100/100/100 99/99/99
f 96/97/97 97/96/96 102/101/101 101/102/102
f 97/96/96 98/98/98 103/103/103 102/101/101
f 98/98/98 99/99/99 104/104/104 103/103/103
f 99/99/99 100/100/100 105/105/105 104/104/104
f 101/102/102 102/101/101 107/106/106 106/107/107
f 102/101/101 103/103/103 108/108/108 107/106/106
f 103/103/103 104/104/104 109/109/109 108/108/108
f 104/104/104 105/105/105 110/110/110 109/109/109
